<?xml version="1.0" encoding="iso-8859-1"?>
<!-- Generator: Adobe Illustrator 21.0.0, SVG Export Plug-In . SVG Version: 6.00 Build 0)  -->
<svg version="1.1" id="Capa_1" xmlns="http://www.w3.org/2000/svg" xmlns:xlink="http://www.w3.org/1999/xlink" x="0px"
     y="0px"
     width="24" height="24"
     viewBox="0 0 511.991 511.991" style="enable-background:new 0 0 511.991 511.991;" xml:space="preserve">
<g id="XMLID_706_">
	<g id="XMLID_707_">
		<g id="XMLID_708_">
			<path style="fill:#3DB4A0;" d="M223.457,245.7l-20.396,122.991l-30.557,21.872l-9.432,6.749l-26.29,18.81
				c-7.404,5.306-17.522-1.002-16.034-9.977l16.362-98.663L223.457,245.7z"/>
            <polygon style="fill:#05A592;" points="223.457,245.7 203.061,368.692 172.504,390.564 163.071,397.313 133.66,328.282
				137.109,307.483 			"/>
            <g id="XMLID_709_">
				<path style="fill:#74E2CD;" d="M203.817,464.057l-66.708-156.574L10.896,251.608c-6.003-5.382-3.696-15.265,4.057-17.45
					L491.47,42.12c4.602-1.297,8.757,0.646,11.077,3.888c2.32,3.242,2.818,7.802,0.105,11.739L221.643,465.85
					C217.072,472.482,206.973,471.475,203.817,464.057z"/>
                <path style="fill:#4FCEB7;" d="M502.654,57.742L221.642,465.848c-4.571,6.637-14.673,5.622-17.821-1.79l-31.313-73.494
					l-35.396-83.081l86.343-61.779l274.194-196.2l4.893-3.501C504.865,49.251,505.364,53.814,502.654,57.742z"/>
                <path style="fill:#3DB4A0;" d="M502.657,57.746l-281.02,408.103c-4.564,6.638-14.67,5.622-17.813-1.787l-4.043-9.481
					c3.872,0.939,8.249-0.364,10.845-4.133L476.074,64.942l26.463-18.935C504.869,49.254,505.366,53.814,502.657,57.746z"/>
			</g>
		</g>
	</g>
    <g id="XMLID_710_">
		<path id="XMLID_711_" d="M508.642,41.646c-4.397-6.146-11.938-8.791-19.212-6.746c-0.262,0.074-0.52,0.162-0.772,0.264
			L138.471,176.295c-3.842,1.548-5.701,5.918-4.152,9.76c1.548,3.842,5.917,5.7,9.76,4.152L473.873,57.294L136.23,298.891
			l-29.898-13.236l12.864-8.084c3.507-2.204,4.563-6.834,2.359-10.341c-2.203-3.506-6.833-4.562-10.341-2.36l-21.423,13.462
			l-22.57-9.992l10.398-6.534c3.507-2.204,4.563-6.834,2.359-10.341c-2.203-3.507-6.833-4.563-10.341-2.36l-18.957,11.913
			l-35.318-15.635c-0.466-0.764-0.398-1.544-0.292-2c0.136-0.585,0.566-1.623,1.913-2.002c0.262-0.074,0.52-0.162,0.772-0.264
			l96.149-38.75c3.842-1.548,5.701-5.918,4.153-9.76c-1.549-3.842-5.917-5.7-9.76-4.152l-95.822,38.618
			c-6.003,1.859-10.585,6.768-12.015,12.911c-1.464,6.295,0.614,12.887,5.423,17.203c0.587,0.527,1.253,0.958,1.974,1.277
			l120.904,53.525l-15.41,92.925c-1.177,7.096,2.008,14.139,8.114,17.941c2.885,1.797,6.131,2.688,9.371,2.688
			c3.616,0,7.223-1.111,10.309-3.319l28.124-20.123l27.648,64.895c2.533,5.945,8.101,10.041,14.531,10.687
			c0.594,0.06,1.186,0.089,1.775,0.089c5.791,0,11.266-2.84,14.592-7.671l88.945-129.169c2.349-3.412,1.488-8.082-1.924-10.431
			c-3.412-2.351-8.082-1.489-10.431,1.923l-88.945,129.169c-0.794,1.154-1.917,1.224-2.513,1.165
			c-0.598-0.06-1.682-0.353-2.231-1.641l-21.77-51.097l22.199-15.884c3.369-2.41,4.146-7.095,1.735-10.464
			s-7.095-4.147-10.464-1.735l-19.493,13.947l-14.521-34.084l21.283-15.228c3.369-2.41,4.146-7.096,1.735-10.464
			c-2.41-3.369-7.095-4.146-10.464-1.735l-18.577,13.292l-16.013-37.585l341.867-244.62L382.78,218.609
			c-2.349,3.412-1.488,8.082,1.924,10.431c1.299,0.895,2.78,1.324,4.247,1.324c2.385,0,4.729-1.135,6.184-3.247L508.826,62.008
			C513.112,55.784,513.04,47.791,508.642,41.646z M132.417,410.027c-1.287,0.921-2.445,0.457-3.021,0.097
			c-0.576-0.358-1.504-1.193-1.246-2.755l12.149-73.263l22.948,53.862L132.417,410.027z"/>
        <path id="XMLID_714_" d="M374.375,244.039c-3.412-2.351-8.082-1.488-10.431,1.923l-40.702,59.109
			c-2.349,3.412-1.488,8.082,1.924,10.431c1.299,0.895,2.78,1.324,4.247,1.324c2.385,0,4.729-1.135,6.184-3.247l40.702-59.109
			C378.648,251.058,377.787,246.388,374.375,244.039z"/>
	</g>
</g>
    <g>
</g>
    <g>
</g>
    <g>
</g>
    <g>
</g>
    <g>
</g>
    <g>
</g>
    <g>
</g>
    <g>
</g>
    <g>
</g>
    <g>
</g>
    <g>
</g>
    <g>
</g>
    <g>
</g>
    <g>
</g>
    <g>
</g>
</svg>
