<?xml version="1.0" encoding="UTF-8" standalone="no"?>
<svg width="24" height="24" id="Layer_1" data-name="Layer 1" xmlns="http://www.w3.org/2000/svg" viewBox="0 0 512 512">
    <defs>
        <style>.cls-1{fill:#ffd38d;}.cls-2{fill:#6d4135;}</style>
    </defs>
    <title>share-filled</title>
    <circle class="cls-1" cx="405.33" cy="106.67" r="85.33"/>
    <circle class="cls-1" cx="405.33" cy="405.33" r="85.33"/>
    <circle class="cls-1" cx="106.67" cy="256" r="85.33"/>
    <path class="cls-2"
          d="M405.33,298.67a106.54,106.54,0,0,0-83.9,40.86L209.69,283.66a106.78,106.78,0,0,0,0-55.31l111.75-55.87a106.27,106.27,0,1,0-19.13-38.15L190.56,190.2a106.67,106.67,0,1,0,0,131.6l111.75,55.87a106.67,106.67,0,1,0,103-79Zm0-256a64,64,0,1,1-64,64A64.07,64.07,0,0,1,405.33,42.67ZM106.67,320a64,64,0,1,1,64-64A64.07,64.07,0,0,1,106.67,320ZM405.33,469.33a64,64,0,1,1,64-64A64.07,64.07,0,0,1,405.33,469.33Z"/>
</svg>
